#!OML:ASF G:\JayActor3\Patient Classification 1\Patient 1\Session 5\male.ASF
:FULLY-SPECIFIED
:DEGREES
1083
root 14.0507 16.7761 2.41102 -172.414 23.1382 -177.865
lowerback 4.08152 -0.284981 2.5477
upperback 0.105206 -0.254312 -0.119762
thorax -2.19225 -0.150024 -1.53732
lowerneck -0.0628048 2.78547 4.87132
upperneck 2.11398 3.73346 -1.77191
head 0.794471 1.89743 -1.33641
rclavicle -3.53588e-014 -1.78906e-015
rhumerus -34.7529 -13.7656 -83.8147
rradius 17.8668
rwrist 16.5778
rhand -22.27 -6.09068
rfingers 7.12502
rthumb 4.14803 -36.03
lclavicle -3.53588e-014 -1.78906e-015
lhumerus -34.6786 -33.5182 110.045
lradius 5.05019
lwrist 58.3669
lhand -29.2648 13.4621
lfingers 7.12502
lthumb -2.60742 43.4259
rfemur -13.4365 8.78097 26.0266
rtibia 37.7019
rfoot -28.9201 -11.3446
rtoes -6.8412
lfemur 0.784321 7.3474 -18.5527
ltibia 9.26189
lfoot -17.1198 -1.69683
ltoes 1.19683
1084
root 14.0696 16.7696 2.37822 -172.307 23.3952 -177.954
lowerback 4.12216 -0.276271 2.40533
upperback 0.0736854 -0.249621 -0.161477
thorax -2.24675 -0.147697 -1.50041
lowerneck -0.0422101 2.78484 4.8604
upperneck 2.00364 3.73207 -1.75411
head 0.755821 1.89527 -1.32976
rclavicle 2.03506e-014 -3.18055e-015
rhumerus -34.7488 -13.6683 -83.8647
rradius 17.9204
rwrist 16.5008
rhand -22.2697 -6.08673
rfingers 7.12502
rthumb 4.14834 -36.0261
lclavicle 2.03506e-014 -3.18055e-015
lhumerus -34.6144 -33.3897 109.897
lradius 5.01775
lwrist 58.2337
lhand -29.2417 13.4564
lfingers 7.12502
lthumb -2.58516 43.4205
rfemur -13.9616 8.88749 25.9329
rtibia 38.5604
rfoot -29.0595 -11.2759
rtoes -7.55988
lfemur 1.09692 7.61143 -18.6305
ltibia 8.72732
lfoot -17.11 -1.60763
ltoes 0.943768
1085
root 14.0893 16.7624 2.34446 -172.198 23.6563 -178.042
lowerback 4.16421 -0.27001 2.26216
upperback 0.0429469 -0.248318 -0.202856
thorax -2.30138 -0.146906 -1.46251
lowerneck -0.0216263 2.78353 4.84951
upperneck 1.89429 3.72991 -1.73646
head 0.717507 1.89275 -1.32319
rclavicle 2.5345e-015 2.18663e-015
rhumerus -34.7449 -13.5629 -83.9188
rradius 17.9762
rwrist 16.4169
rhand -22.267 -6.08467
rfingers 7.12502
rthumb 4.15094 -36.024
lclavicle 2.5345e-015 2.18663e-015
lhumerus -34.5411 -33.2535 109.739
lradius 4.98238
lwrist 58.0879
lhand -29.2215 13.4539
lfingers 7.12502
lthumb -2.56561 43.4182
rfemur -14.4989 9.01305 25.8432
rtibia 39.4296
rfoot -29.192 -11.2163
rtoes -8.26021
lfemur 1.3929 7.87598 -18.7084
ltibia 8.22691
lfoot -17.1144 -1.51206
ltoes 0.671145
1086
root 14.1098 16.7543 2.30963 -172.087 23.9194 -178.129
lowerback 4.20744 -0.266351 2.12048
upperback 0.0132025 -0.2505 -0.243506
thorax -2.35582 -0.147716 -1.42447
lowerneck 0.000806634 2.78127 4.83701
upperneck 1.78495 3.72667 -1.71695
head 0.678812 1.88972 -1.3158
rclavicle -1.96548e-014 -6.75868e-015
rhumerus -34.7423 -13.4843 -83.96
rradius 18.0273
rwrist 16.3628
rhand -22.2602 -6.07788
rfingers 7.12502
rthumb 4.15746 -36.0171
lclavicle -1.96548e-014 -6.75868e-015
lhumerus -34.4597 -33.1106 109.572
lradius 4.94392
lwrist 57.9317
lhand -29.1994 13.4503
lfingers 7.12502
lthumb -2.54425 43.4149
rfemur -15.0416 9.15691 25.7595
rtibia 40.299
rfoot -29.314 -11.1638
rtoes -8.93987
lfemur 1.6653 8.14416 -18.7846
ltibia 7.77654
lfoot -17.1393 -1.41479
ltoes 0.377792
1087
root 14.1313 16.7453 2.27363 -171.973 24.1836 -178.213
lowerback 4.2508 -0.26553 1.98105
upperback -0.01563 -0.256471 -0.283425
thorax -2.40955 -0.150288 -1.38672
lowerneck 0.0244109 2.77821 4.82429
upperneck 1.67753 3.72254 -1.69711
head 0.640522 1.8863 -1.30832
rclavicle -2.93207e-015 8.94531e-015
rhumerus -34.741 -13.3966 -84.0046
rradius 18.0798
rwrist 16.2997
rhand -22.2514 -6.07373
rfingers 7.12502
rthumb 4.16605 -36.0127
lclavicle -2.93207e-015 8.94531e-015
lhumerus -34.3718 -32.9607 109.399
lradius 4.90403
lwrist 57.7637
lhand -29.179 13.451
lfingers 7.12502
lthumb -2.5246 43.4158
rfemur -15.5839 9.32021 25.6821
rtibia 41.1574
rfoot -29.4218 -11.1172
rtoes -9.58751
lfemur 1.90553 8.41304 -18.8587
ltibia 7.3933
lfoot -17.1912 -1.31495
ltoes 0.0664613
1088
root 14.1537 16.7357 2.23634 -171.859 24.4467 -178.294
lowerback 4.29396 -0.267939 1.84476
upperback -0.043139 -0.266699 -0.322053
thorax -2.46196 -0.154858 -1.34912
lowerneck 0.0493709 2.77464 4.81259
upperneck 1.57252 3.71793 -1.67784
head 0.602819 1.88271 -1.30122
rclavicle 4.52235e-014 -5.76476e-015
rhumerus -34.7406 -13.3 -84.0521
rradius 18.1323
rwrist 16.2285
rhand -22.2401 -6.07042
rfingers 7.12502
rthumb 4.17687 -36.0092
lclavicle 4.52235e-014 -5.76476e-015
lhumerus -34.2783 -32.8042 109.22
lradius 4.86415
lwrist 57.5831
lhand -29.1568 13.4548
lfingers 7.12502
lthumb -2.5031 43.4198
rfemur -16.1192 9.50137 25.6122
rtibia 41.9941
rfoot -29.5108 -11.0762
rtoes -10.1827
lfemur 2.10927 8.68073 -18.9294
ltibia 7.08815
lfoot -17.2746 -1.2112
ltoes -0.27456
1089
root 14.1771 16.7252 2.19767 -171.743 24.7069 -178.371
lowerback 4.33655 -0.273535 1.71259
upperback -0.0694568 -0.28106 -0.358772
thorax -2.51297 -0.161385 -1.3116
lowerneck 0.0745161 2.77022 4.79956
upperneck 1.47215 3.71233 -1.65745
head 0.566481 1.8787 -1.29354
rclavicle 2.62893e-014 -1.25234e-014
rhumerus -34.7423 -13.2128 -84.0938
rradius 18.1818
rwrist 16.1675
rhand -22.2253 -6.06706
rfingers 7.12502
rthumb 4.19121 -36.0056
lclavicle 2.62893e-014 -1.25234e-014
lhumerus -34.1797 -32.6421 109.036
lradius 4.8219
lwrist 57.3945
lhand -29.1379 13.46
lfingers 7.12502
lthumb -2.48493 43.4253
rfemur -16.6413 9.69323 25.5522
rtibia 42.7997
rfoot -29.579 -11.0566
rtoes -10.7319
lfemur 2.27671 8.94567 -18.9959
ltibia 6.86303
lfoot -17.3898 -1.10504
ltoes -0.630333
1090
root 14.2016 16.7143 2.15749 -171.627 24.9623 -178.444
lowerback 4.37702 -0.282598 1.58626
upperback -0.0942595 -0.29986 -0.393527
thorax -2.56136 -0.17004 -1.27503
lowerneck 0.100495 2.76505 4.78602
upperneck 1.37585 3.70588 -1.636
head 0.531244 1.87434 -1.28545
rclavicle -4.76089e-014 4.37326e-015
rhumerus -34.746 -13.1251 -84.135
rradius 18.2301
rwrist 16.1048
rhand -22.2102 -6.0662
rfingers 7.12502
rthumb 4.20579 -36.0044
lclavicle -4.76089e-014 4.37326e-015
lhumerus -34.0771 -32.4754 108.85
lradius 4.77925
lwrist 57.1978
lhand -29.1223 13.4656
lfingers 7.12502
lthumb -2.46979 43.4311
rfemur -17.1426 9.89366 25.5024
rtibia 43.5661
rfoot -29.6334 -11.0763
rtoes -11.2356
lfemur 2.40953 9.20595 -19.0576
ltibia 6.71636
lfoot -17.5345 -0.995146
ltoes -1.0131
1091
root 14.2273 16.7033 2.11568 -171.508 25.2101 -178.511
lowerback 4.41519 -0.295301 1.46711
upperback -0.117521 -0.323231 -0.425807
thorax -2.60699 -0.180917 -1.23963
lowerneck 0.126956 2.75889 4.77178
upperneck 1.28467 3.69825 -1.61336
head 0.497468 1.86948 -1.27687
rclavicle 3.52843e-014 5.1684e-015
rhumerus -34.7519 -13.0396 -84.1723
rradius 18.2757
rwrist 16.0435
rhand -22.1897 -6.06421
rfingers 7.12502
rthumb 4.22561 -36.002
lclavicle 3.52843e-014 5.1684e-015
lhumerus -33.9711 -32.3056 108.662
lradius 4.73561
lwrist 56.995
lhand -29.1067 13.4722
lfingers 7.12502
lthumb -2.45472 43.4378
rfemur -17.6148 10.1023 25.4632
rtibia 44.2851
rfoot -29.6905 -11.08
rtoes -11.6389
lfemur 2.51067 9.45921 -19.1127
ltibia 6.64384
lfoot -17.7031 -0.8821
ltoes -1.42277
1092
root 14.2542 16.6923 2.07212 -171.389 25.4481 -178.572
lowerback 4.45045 -0.311696 1.35644
upperback -0.139222 -0.351152 -0.455122
thorax -2.64951 -0.194035 -1.20562
lowerneck 0.154773 2.75148 4.7562
upperneck 1.19796 3.68913 -1.58921
head 0.464774 1.86395 -1.26759
rclavicle 5.31252e-014 -1.49089e-014
rhumerus -34.7607 -12.9581 -84.2062
rradius 18.3179
rwrist 15.987
rhand -22.1677 -6.06248
rfingers 7.12502
rthumb 4.24683 -35.9999
lclavicle 5.31252e-014 -1.49089e-014
lhumerus -33.8628 -32.134 108.474
lradius 4.69077
lwrist 56.7878
lhand -29.0923 13.4801
lfingers 7.12502
lthumb -2.44084 43.4459
rfemur -18.0513 10.3139 25.4359
rtibia 44.9474
rfoot -29.744 -11.0814
rtoes -11.9636
lfemur 2.58654 9.70324 -19.1606
ltibia 6.63499
lfoot -17.8867 -0.764447
ltoes -1.86765
